# MagicaVoxel @ Ephtracy

# group
o 

# material
mtllib a5s1.mtl
usemtl palette

# normals
vn -1 0 0
vn 1 0 0
vn 0 0 1
vn 0 0 -1
vn 0 -1 0
vn 0 1 0

# texcoords
vt 0.912109 0.5
vt 0.939453 0.5
vt 0.943359 0.5
vt 0.947266 0.5
vt 0.951172 0.5

# verts
v -0.25 -0.15 0.15
v -0.25 -0.15 0.05
v -0.25 -0.05 0.15
v -0.25 -0.05 0.05
v -0.25 -0.05 -0.05
v -0.25 0.05 0.25
v -0.25 0.05 0.15
v -0.25 0.05 0.05
v -0.25 0.05 -0.05
v -0.25 0.15 0.25
v -0.25 0.15 0.15
v -0.15 -0.25 -0.05
v -0.15 -0.25 -0.15
v -0.15 -0.15 0.25
v -0.15 -0.15 0.15
v -0.15 -0.15 0.05
v -0.15 -0.15 -0.05
v -0.15 -0.15 -0.15
v -0.15 -0.05 0.25
v -0.15 -0.05 0.15
v -0.15 -0.05 0.05
v -0.15 -0.05 -0.05
v -0.15 -0.05 -0.15
v -0.15 0.05 0.25
v -0.15 0.05 0.15
v -0.15 0.05 0.05
v -0.15 0.05 -0.05
v -0.15 0.05 -0.15
v -0.15 0.15 0.15
v -0.15 0.15 0.05
v -0.15 0.15 -0.05
v -0.15 0.25 0.15
v -0.15 0.25 0.05
v -0.05 -0.25 0.05
v -0.05 -0.25 -0.05
v -0.05 -0.25 -0.15
v -0.05 -0.25 -0.25
v -0.05 -0.15 0.05
v -0.05 -0.15 -0.05
v -0.05 -0.15 -0.15
v -0.05 -0.15 -0.25
v -0.05 -0.05 -0.05
v -0.05 -0.05 -0.15
v -0.05 0.05 -0.05
v -0.05 0.05 -0.15
v -0.05 0.15 -0.05
v -0.05 0.15 -0.15
v 0.05 -0.15 -0.15
v 0.05 -0.15 -0.25
v 0.05 -0.05 -0.15
v 0.05 -0.05 -0.25
v -0.05 -0.15 0.25
v -0.05 -0.15 0.15
v -0.05 -0.05 0.25
v -0.05 -0.05 0.15
v -0.05 0.05 0.25
v -0.05 0.05 0.15
v -0.05 0.15 0.25
v -0.05 0.15 0.15
v -0.05 0.15 0.05
v -0.05 0.25 0.15
v -0.05 0.25 0.05
v 0.05 -0.25 0.05
v 0.05 -0.25 -0.05
v 0.05 -0.25 -0.15
v 0.05 -0.25 -0.25
v 0.05 -0.15 0.15
v 0.05 -0.15 0.05
v 0.05 -0.15 -0.05
v 0.05 -0.15 -0.15
v 0.05 -0.15 -0.25
v 0.05 -0.05 0.25
v 0.05 -0.05 0.15
v 0.05 -0.05 0.05
v 0.05 0.05 0.25
v 0.05 0.05 0.15
v 0.05 0.05 0.05
v 0.05 0.05 -0.05
v 0.05 0.05 -0.15
v 0.05 0.15 0.05
v 0.05 0.15 -0.05
v 0.05 0.15 -0.15
v 0.15 -0.25 -0.05
v 0.15 -0.25 -0.15
v 0.15 -0.15 0.05
v 0.15 -0.15 -0.05
v 0.15 -0.15 -0.15
v 0.15 -0.15 -0.25
v 0.15 -0.05 0.15
v 0.15 -0.05 0.05
v 0.15 -0.05 -0.05
v 0.15 -0.05 -0.15
v 0.15 -0.05 -0.25
v 0.15 0.05 0.15
v 0.15 0.05 0.05
v 0.15 0.05 -0.15
v 0.15 0.15 0.15
v 0.15 0.15 0.05
v 0.25 -0.15 -0.05
v 0.25 -0.15 -0.15
v 0.25 -0.05 -0.05
v 0.25 -0.05 -0.15
v -0.25 0.05 0.25
v -0.25 0.15 0.25
v -0.15 -0.15 0.25
v -0.15 -0.05 0.25
v -0.15 0.05 0.25
v -0.15 0.15 0.25
v -0.05 -0.15 0.25
v -0.05 -0.05 0.25
v -0.05 0.05 0.25
v -0.05 0.15 0.25
v 0.05 -0.05 0.25
v 0.05 0.05 0.25
v -0.25 -0.15 0.15
v -0.25 -0.05 0.15
v -0.25 0.05 0.15
v -0.15 -0.15 0.15
v -0.15 -0.05 0.15
v -0.15 0.05 0.15
v -0.15 0.15 0.15
v -0.15 0.25 0.15
v -0.05 -0.15 0.15
v -0.05 -0.05 0.15
v -0.05 0.05 0.15
v -0.05 0.15 0.15
v -0.05 0.25 0.15
v 0.05 -0.15 0.15
v 0.05 -0.05 0.15
v 0.05 0.05 0.15
v 0.05 0.15 0.15
v 0.15 -0.05 0.15
v 0.15 0.05 0.15
v 0.15 0.15 0.15
v -0.05 -0.25 0.05
v -0.05 -0.15 0.05
v 0.05 -0.25 0.05
v 0.05 -0.15 0.05
v 0.05 -0.05 0.05
v 0.15 -0.15 0.05
v 0.15 -0.05 0.05
v -0.15 -0.25 -0.05
v -0.15 -0.15 -0.05
v -0.05 -0.25 -0.05
v -0.05 -0.15 -0.05
v 0.05 -0.25 -0.05
v 0.05 -0.15 -0.05
v 0.15 -0.25 -0.05
v 0.15 -0.15 -0.05
v 0.15 -0.05 -0.05
v 0.25 -0.15 -0.05
v 0.25 -0.05 -0.05
v -0.25 0.05 0.15
v -0.25 0.15 0.15
v -0.15 0.05 0.15
v -0.15 0.15 0.15
v -0.25 -0.15 0.05
v -0.25 -0.05 0.05
v -0.15 -0.15 0.05
v -0.15 -0.05 0.05
v -0.15 0.15 0.05
v -0.15 0.25 0.05
v -0.05 0.15 0.05
v -0.05 0.25 0.05
v 0.05 0.05 0.05
v 0.05 0.15 0.05
v 0.15 0.05 0.05
v 0.15 0.15 0.05
v -0.25 -0.05 -0.05
v -0.25 0.05 -0.05
v -0.15 -0.15 -0.05
v -0.15 -0.05 -0.05
v -0.15 0.05 -0.05
v -0.15 0.15 -0.05
v -0.05 -0.15 -0.05
v -0.05 -0.05 -0.05
v -0.05 0.05 -0.05
v -0.05 0.15 -0.05
v -0.15 -0.25 -0.15
v -0.15 -0.15 -0.15
v -0.15 -0.05 -0.15
v -0.15 0.05 -0.15
v -0.05 -0.25 -0.15
v -0.05 -0.15 -0.15
v -0.05 -0.05 -0.15
v -0.05 0.05 -0.15
v -0.05 0.15 -0.15
v 0.05 -0.25 -0.15
v 0.05 -0.15 -0.15
v 0.05 -0.05 -0.15
v 0.05 0.05 -0.15
v 0.05 0.15 -0.15
v 0.15 -0.25 -0.15
v 0.15 -0.15 -0.15
v 0.15 -0.05 -0.15
v 0.15 0.05 -0.15
v 0.25 -0.15 -0.15
v 0.25 -0.05 -0.15
v -0.05 -0.25 -0.25
v -0.05 -0.15 -0.25
v 0.05 -0.25 -0.25
v 0.05 -0.15 -0.25
v 0.05 -0.05 -0.25
v 0.15 -0.15 -0.25
v 0.15 -0.05 -0.25
v -0.05 -0.25 0.05
v 0.05 -0.25 0.05
v -0.15 -0.25 -0.05
v -0.05 -0.25 -0.05
v 0.05 -0.25 -0.05
v 0.15 -0.25 -0.05
v -0.15 -0.25 -0.15
v -0.05 -0.25 -0.15
v 0.05 -0.25 -0.15
v 0.15 -0.25 -0.15
v -0.05 -0.25 -0.25
v 0.05 -0.25 -0.25
v -0.15 -0.15 0.25
v -0.05 -0.15 0.25
v -0.25 -0.15 0.15
v -0.15 -0.15 0.15
v -0.05 -0.15 0.15
v 0.05 -0.15 0.15
v -0.25 -0.15 0.05
v -0.15 -0.15 0.05
v -0.05 -0.15 0.05
v 0.05 -0.15 0.05
v 0.15 -0.15 0.05
v -0.15 -0.15 -0.05
v -0.05 -0.15 -0.05
v 0.05 -0.15 -0.05
v 0.15 -0.15 -0.05
v 0.25 -0.15 -0.05
v 0.05 -0.15 -0.15
v 0.15 -0.15 -0.15
v 0.25 -0.15 -0.15
v 0.05 -0.15 -0.25
v 0.15 -0.15 -0.25
v -0.05 -0.05 0.25
v 0.05 -0.05 0.25
v -0.05 -0.05 0.15
v 0.05 -0.05 0.15
v 0.15 -0.05 0.15
v -0.25 -0.05 0.05
v -0.15 -0.05 0.05
v 0.05 -0.05 0.05
v 0.15 -0.05 0.05
v -0.25 -0.05 -0.05
v -0.15 -0.05 -0.05
v -0.05 -0.05 -0.05
v -0.15 -0.05 -0.15
v -0.05 -0.05 -0.15
v -0.25 0.05 0.25
v -0.15 0.05 0.25
v -0.25 0.05 0.15
v -0.15 0.05 0.15
v -0.15 -0.15 -0.05
v -0.05 -0.15 -0.05
v -0.15 -0.15 -0.15
v -0.05 -0.15 -0.15
v 0.05 -0.15 -0.15
v -0.05 -0.15 -0.25
v 0.05 -0.15 -0.25
v 0.15 -0.05 -0.05
v 0.25 -0.05 -0.05
v 0.05 -0.05 -0.15
v 0.15 -0.05 -0.15
v 0.25 -0.05 -0.15
v 0.05 -0.05 -0.25
v 0.15 -0.05 -0.25
v -0.05 0.05 0.25
v 0.05 0.05 0.25
v -0.25 0.05 0.15
v -0.15 0.05 0.15
v -0.05 0.05 0.15
v 0.05 0.05 0.15
v -0.25 0.05 0.05
v -0.15 0.05 0.05
v 0.05 0.05 0.05
v 0.15 0.05 0.05
v -0.25 0.05 -0.05
v -0.15 0.05 -0.05
v -0.05 0.05 -0.05
v 0.05 0.05 -0.05
v -0.15 0.05 -0.15
v -0.05 0.05 -0.15
v 0.05 0.05 -0.15
v 0.15 0.05 -0.15
v -0.25 0.15 0.25
v -0.15 0.15 0.25
v -0.05 0.15 0.25
v -0.25 0.15 0.15
v -0.15 0.15 0.15
v -0.05 0.15 0.15
v 0.05 0.15 0.15
v 0.15 0.15 0.15
v -0.15 0.15 0.05
v -0.05 0.15 0.05
v 0.05 0.15 0.05
v 0.15 0.15 0.05
v -0.15 0.15 -0.05
v -0.05 0.15 -0.05
v 0.05 0.15 -0.05
v -0.05 0.15 -0.15
v 0.05 0.15 -0.15
v -0.15 0.25 0.15
v -0.05 0.25 0.15
v -0.15 0.25 0.05
v -0.05 0.25 0.05

# faces
f 3/5/1 2/5/1 1/5/1
f 4/5/1 2/5/1 3/5/1
f 7/2/1 4/2/1 3/2/1
f 8/3/1 5/3/1 4/3/1
f 8/2/1 4/2/1 7/2/1
f 9/3/1 5/3/1 8/3/1
f 10/3/1 7/3/1 6/3/1
f 11/3/1 7/3/1 10/3/1
f 17/3/1 13/3/1 12/3/1
f 18/3/1 13/3/1 17/3/1
f 19/1/1 15/1/1 14/1/1
f 20/1/1 15/1/1 19/1/1
f 21/1/1 17/1/1 16/1/1
f 22/1/1 17/1/1 21/1/1
f 24/2/1 20/2/1 19/2/1
f 25/2/1 20/2/1 24/2/1
f 27/5/1 23/5/1 22/5/1
f 28/5/1 23/5/1 27/5/1
f 29/2/1 26/2/1 25/2/1
f 29/2/1 27/2/1 26/2/1
f 30/2/1 27/2/1 29/2/1
f 31/2/1 27/2/1 30/2/1
f 32/5/1 30/5/1 29/5/1
f 33/5/1 30/5/1 32/5/1
f 38/3/1 35/3/1 34/3/1
f 39/3/1 35/3/1 38/3/1
f 40/4/1 37/4/1 36/4/1
f 41/4/1 37/4/1 40/4/1
f 42/3/1 40/3/1 39/3/1
f 43/3/1 40/3/1 42/3/1
f 46/5/1 45/5/1 44/5/1
f 47/5/1 45/5/1 46/5/1
f 50/5/1 49/5/1 48/5/1
f 51/5/1 49/5/1 50/5/1
f 52/1/2 53/1/2 54/1/2
f 54/1/2 53/1/2 55/1/2
f 56/1/2 57/1/2 58/1/2
f 58/1/2 57/1/2 59/1/2
f 59/5/2 60/5/2 61/5/2
f 61/5/2 60/5/2 62/5/2
f 63/3/2 64/3/2 68/3/2
f 68/3/2 64/3/2 69/3/2
f 65/4/2 66/4/2 70/4/2
f 70/4/2 66/4/2 71/4/2
f 67/2/2 68/2/2 73/2/2
f 73/2/2 68/2/2 74/2/2
f 72/4/2 73/4/2 75/4/2
f 75/4/2 73/4/2 76/4/2
f 77/1/2 78/1/2 80/1/2
f 78/5/2 79/5/2 81/5/2
f 80/1/2 78/1/2 81/1/2
f 81/5/2 79/5/2 82/5/2
f 83/1/2 84/1/2 86/1/2
f 86/1/2 84/1/2 87/1/2
f 85/5/2 86/5/2 90/5/2
f 90/5/2 86/5/2 91/5/2
f 87/5/2 88/5/2 92/5/2
f 92/5/2 88/5/2 93/5/2
f 89/3/2 90/3/2 94/3/2
f 90/4/2 91/4/2 95/4/2
f 94/3/2 90/3/2 95/3/2
f 91/4/2 92/4/2 95/4/2
f 95/4/2 92/4/2 96/4/2
f 94/2/2 95/2/2 97/2/2
f 97/2/2 95/2/2 98/2/2
f 99/1/2 100/1/2 101/1/2
f 101/1/2 100/1/2 102/1/2
f 107/3/3 104/3/3 103/3/3
f 108/3/3 104/3/3 107/3/3
f 109/1/3 106/1/3 105/1/3
f 110/2/3 107/2/3 106/2/3
f 110/1/3 106/1/3 109/1/3
f 111/1/3 108/1/3 107/1/3
f 111/2/3 107/2/3 110/2/3
f 112/1/3 108/1/3 111/1/3
f 113/4/3 111/4/3 110/4/3
f 114/4/3 111/4/3 113/4/3
f 118/5/3 116/5/3 115/5/3
f 119/2/3 117/2/3 116/2/3
f 119/5/3 116/5/3 118/5/3
f 120/2/3 117/2/3 119/2/3
f 126/5/3 122/5/3 121/5/3
f 127/5/3 122/5/3 126/5/3
f 128/2/3 124/2/3 123/2/3
f 129/2/3 124/2/3 128/2/3
f 130/4/3 126/4/3 125/4/3
f 131/4/3 126/4/3 130/4/3
f 132/3/3 130/3/3 129/3/3
f 133/2/3 131/2/3 130/2/3
f 133/3/3 130/3/3 132/3/3
f 134/2/3 131/2/3 133/2/3
f 137/3/3 136/3/3 135/3/3
f 138/3/3 136/3/3 137/3/3
f 140/5/3 139/5/3 138/5/3
f 141/5/3 139/5/3 140/5/3
f 144/3/3 143/3/3 142/3/3
f 145/3/3 143/3/3 144/3/3
f 148/1/3 147/1/3 146/1/3
f 149/1/3 147/1/3 148/1/3
f 151/1/3 150/1/3 149/1/3
f 152/1/3 150/1/3 151/1/3
f 153/3/4 154/3/4 155/3/4
f 155/3/4 154/3/4 156/3/4
f 157/5/4 158/5/4 159/5/4
f 159/5/4 158/5/4 160/5/4
f 161/5/4 162/5/4 163/5/4
f 163/5/4 162/5/4 164/5/4
f 165/2/4 166/2/4 167/2/4
f 167/2/4 166/2/4 168/2/4
f 169/3/4 170/3/4 172/3/4
f 172/3/4 170/3/4 173/3/4
f 171/1/4 172/1/4 175/1/4
f 175/1/4 172/1/4 176/1/4
f 173/2/4 174/2/4 177/2/4
f 177/2/4 174/2/4 178/2/4
f 179/3/4 180/3/4 183/3/4
f 183/3/4 180/3/4 184/3/4
f 181/5/4 182/5/4 185/5/4
f 185/5/4 182/5/4 186/5/4
f 184/3/4 185/3/4 189/3/4
f 185/1/4 186/1/4 190/1/4
f 189/3/4 185/3/4 190/3/4
f 186/5/4 187/5/4 191/5/4
f 190/1/4 186/1/4 191/1/4
f 191/5/4 187/5/4 192/5/4
f 188/1/4 189/1/4 193/1/4
f 193/1/4 189/1/4 194/1/4
f 190/4/4 191/4/4 195/4/4
f 195/4/4 191/4/4 196/4/4
f 194/1/4 195/1/4 197/1/4
f 197/1/4 195/1/4 198/1/4
f 199/4/4 200/4/4 201/4/4
f 201/4/4 200/4/4 202/4/4
f 202/5/4 203/5/4 204/5/4
f 204/5/4 203/5/4 205/5/4
f 209/3/5 207/3/5 206/3/5
f 210/3/5 207/3/5 209/3/5
f 212/3/5 209/3/5 208/3/5
f 213/4/5 210/4/5 209/4/5
f 213/3/5 209/3/5 212/3/5
f 214/1/5 211/1/5 210/1/5
f 214/4/5 210/4/5 213/4/5
f 215/1/5 211/1/5 214/1/5
f 216/4/5 214/4/5 213/4/5
f 217/4/5 214/4/5 216/4/5
f 221/1/5 219/1/5 218/1/5
f 222/1/5 219/1/5 221/1/5
f 224/5/5 221/5/5 220/5/5
f 225/3/5 222/3/5 221/3/5
f 225/5/5 221/5/5 224/5/5
f 226/2/5 223/2/5 222/2/5
f 226/3/5 222/3/5 225/3/5
f 227/2/5 223/2/5 226/2/5
f 229/1/5 226/1/5 225/1/5
f 230/1/5 226/1/5 229/1/5
f 231/5/5 228/5/5 227/5/5
f 232/5/5 228/5/5 231/5/5
f 235/1/5 233/1/5 232/1/5
f 236/1/5 233/1/5 235/1/5
f 237/5/5 235/5/5 234/5/5
f 238/5/5 235/5/5 237/5/5
f 241/4/5 240/4/5 239/4/5
f 242/4/5 240/4/5 241/4/5
f 246/3/5 243/3/5 242/3/5
f 247/3/5 243/3/5 246/3/5
f 248/3/5 245/3/5 244/3/5
f 249/3/5 245/3/5 248/3/5
f 251/5/5 250/5/5 249/5/5
f 252/5/5 250/5/5 251/5/5
f 255/3/5 254/3/5 253/3/5
f 256/3/5 254/3/5 255/3/5
f 257/3/6 258/3/6 259/3/6
f 259/3/6 258/3/6 260/3/6
f 260/4/6 261/4/6 262/4/6
f 262/4/6 261/4/6 263/4/6
f 264/1/6 265/1/6 267/1/6
f 267/1/6 265/1/6 268/1/6
f 266/5/6 267/5/6 269/5/6
f 269/5/6 267/5/6 270/5/6
f 271/4/6 272/4/6 275/4/6
f 275/4/6 272/4/6 276/4/6
f 273/2/6 274/2/6 277/2/6
f 277/2/6 274/2/6 278/2/6
f 277/3/6 278/3/6 281/3/6
f 281/3/6 278/3/6 282/3/6
f 279/4/6 280/4/6 284/4/6
f 282/5/6 283/5/6 285/5/6
f 285/5/6 283/5/6 286/5/6
f 284/4/6 280/4/6 287/4/6
f 287/4/6 280/4/6 288/4/6
f 289/3/6 290/3/6 292/3/6
f 290/1/6 291/1/6 293/1/6
f 292/3/6 290/3/6 293/3/6
f 293/1/6 291/1/6 294/1/6
f 294/4/6 295/4/6 298/4/6
f 295/2/6 296/2/6 299/2/6
f 298/4/6 295/4/6 299/4/6
f 299/2/6 296/2/6 300/2/6
f 297/2/6 298/2/6 301/2/6
f 298/1/6 299/1/6 302/1/6
f 301/2/6 298/2/6 302/2/6
f 302/1/6 299/1/6 303/1/6
f 302/5/6 303/5/6 304/5/6
f 304/5/6 303/5/6 305/5/6
f 306/5/6 307/5/6 308/5/6
f 308/5/6 307/5/6 309/5/6
