# MagicaVoxel @ Ephtracy

# group
o 

# material
mtllib a6g2.mtl
usemtl palette

# normals
vn -1 0 0
vn 1 0 0
vn 0 0 1
vn 0 0 -1
vn 0 -1 0
vn 0 1 0

# texcoords
vt 0.908203 0.5
vt 0.939453 0.5
vt 0.943359 0.5
vt 0.947266 0.5
vt 0.951172 0.5

# verts
v -0.25 -0.15 -0.05
v -0.25 -0.15 -0.15
v -0.25 -0.05 0.15
v -0.25 -0.05 0.05
v -0.25 -0.05 -0.05
v -0.25 -0.05 -0.15
v -0.25 0.05 0.15
v -0.25 0.05 0.05
v -0.25 0.05 -0.05
v -0.25 0.05 -0.15
v -0.25 0.15 0.05
v -0.25 0.15 -0.05
v -0.15 -0.25 0.05
v -0.15 -0.25 -0.05
v -0.15 -0.25 -0.15
v -0.15 -0.15 0.15
v -0.15 -0.15 0.05
v -0.15 -0.15 -0.05
v -0.15 -0.15 -0.15
v -0.15 -0.15 -0.25
v -0.15 -0.05 0.25
v -0.15 -0.05 0.15
v -0.15 -0.05 0.05
v -0.15 -0.05 -0.05
v -0.15 -0.05 -0.15
v -0.15 -0.05 -0.25
v -0.15 0.05 0.25
v -0.15 0.05 0.15
v -0.15 0.05 0.05
v -0.15 0.05 -0.05
v -0.15 0.05 -0.15
v -0.15 0.05 -0.25
v -0.15 0.15 0.15
v -0.15 0.15 0.05
v -0.15 0.15 -0.05
v -0.15 0.15 -0.15
v -0.05 -0.25 0.15
v -0.05 -0.25 0.05
v -0.05 -0.15 0.15
v -0.05 -0.15 0.05
v -0.05 0.05 0.25
v -0.05 0.05 0.15
v -0.05 0.05 -0.15
v -0.05 0.05 -0.25
v -0.05 0.15 0.25
v -0.05 0.15 0.15
v -0.05 0.15 0.05
v -0.05 0.15 -0.15
v -0.05 0.15 -0.25
v -0.05 0.25 0.15
v -0.05 0.25 0.05
v 0.05 0.15 0.05
v 0.05 0.15 -0.05
v 0.05 0.25 0.05
v 0.05 0.25 -0.05
v -0.05 -0.15 -0.15
v -0.05 -0.15 -0.25
v -0.05 -0.05 -0.15
v -0.05 -0.05 -0.25
v 0.05 -0.25 0.15
v 0.05 -0.25 0.05
v 0.05 -0.25 -0.05
v 0.05 -0.25 -0.15
v 0.05 -0.15 0.15
v 0.05 -0.15 0.05
v 0.05 -0.15 -0.05
v 0.05 -0.15 -0.15
v 0.05 0.05 0.25
v 0.05 0.05 0.15
v 0.05 0.05 -0.15
v 0.05 0.05 -0.25
v 0.05 0.15 0.25
v 0.05 0.15 0.15
v 0.05 0.15 0.05
v 0.05 0.15 -0.15
v 0.05 0.15 -0.25
v 0.05 0.25 0.15
v 0.05 0.25 0.05
v 0.15 -0.25 0.05
v 0.15 -0.25 -0.05
v 0.15 -0.15 0.15
v 0.15 -0.15 0.05
v 0.15 -0.15 -0.05
v 0.15 -0.15 -0.15
v 0.15 -0.05 0.25
v 0.15 -0.05 0.15
v 0.15 -0.05 0.05
v 0.15 -0.05 -0.05
v 0.15 -0.05 -0.15
v 0.15 -0.05 -0.25
v 0.15 0.05 0.25
v 0.15 0.05 0.15
v 0.15 0.05 -0.05
v 0.15 0.05 -0.15
v 0.15 0.05 -0.25
v 0.15 0.15 0.15
v 0.15 0.15 0.05
v 0.15 0.15 -0.05
v 0.15 0.15 -0.15
v 0.15 0.25 0.05
v 0.15 0.25 -0.05
v 0.25 -0.15 0.05
v 0.25 -0.15 -0.05
v 0.25 -0.05 0.15
v 0.25 -0.05 0.05
v 0.25 -0.05 -0.05
v 0.25 0.05 0.15
v 0.25 0.05 -0.05
v -0.15 -0.05 0.25
v -0.15 0.05 0.25
v -0.05 -0.05 0.25
v -0.05 0.05 0.25
v -0.05 0.15 0.25
v 0.05 -0.05 0.25
v 0.05 0.05 0.25
v 0.05 0.15 0.25
v 0.15 -0.05 0.25
v 0.15 0.05 0.25
v -0.25 -0.05 0.15
v -0.25 0.05 0.15
v -0.15 -0.15 0.15
v -0.15 -0.05 0.15
v -0.15 0.05 0.15
v -0.15 0.15 0.15
v -0.05 -0.25 0.15
v -0.05 -0.15 0.15
v -0.05 -0.05 0.15
v -0.05 0.05 0.15
v -0.05 0.15 0.15
v -0.05 0.25 0.15
v 0.05 -0.25 0.15
v 0.05 -0.15 0.15
v 0.05 -0.05 0.15
v 0.05 0.05 0.15
v 0.05 0.15 0.15
v 0.05 0.25 0.15
v 0.15 -0.15 0.15
v 0.15 -0.05 0.15
v 0.15 0.05 0.15
v 0.15 0.15 0.15
v 0.25 -0.05 0.15
v 0.25 0.05 0.15
v -0.25 0.05 0.05
v -0.25 0.15 0.05
v -0.15 -0.25 0.05
v -0.15 -0.15 0.05
v -0.15 0.05 0.05
v -0.15 0.15 0.05
v -0.05 -0.25 0.05
v -0.05 -0.15 0.05
v 0.05 -0.25 0.05
v 0.05 -0.15 0.05
v 0.05 0.15 0.05
v 0.05 0.25 0.05
v 0.15 -0.25 0.05
v 0.15 -0.15 0.05
v 0.15 -0.05 0.05
v 0.15 0.15 0.05
v 0.15 0.25 0.05
v 0.25 -0.15 0.05
v 0.25 -0.05 0.05
v -0.25 -0.15 -0.05
v -0.25 -0.05 -0.05
v -0.15 -0.15 -0.05
v -0.15 -0.05 -0.05
v -0.05 0.15 0.05
v -0.05 0.25 0.05
v 0.05 0.15 0.05
v 0.05 0.25 0.05
v -0.25 0.05 -0.05
v -0.25 0.15 -0.05
v -0.15 0.05 -0.05
v -0.15 0.15 -0.05
v 0.05 -0.25 -0.05
v 0.05 -0.15 -0.05
v 0.05 0.15 -0.05
v 0.05 0.25 -0.05
v 0.15 -0.25 -0.05
v 0.15 -0.15 -0.05
v 0.15 -0.05 -0.05
v 0.15 0.05 -0.05
v 0.15 0.15 -0.05
v 0.15 0.25 -0.05
v 0.25 -0.15 -0.05
v 0.25 -0.05 -0.05
v 0.25 0.05 -0.05
v -0.25 -0.15 -0.15
v -0.25 -0.05 -0.15
v -0.25 0.05 -0.15
v -0.15 -0.25 -0.15
v -0.15 -0.15 -0.15
v -0.15 -0.05 -0.15
v -0.15 0.05 -0.15
v -0.15 0.15 -0.15
v -0.05 -0.25 -0.15
v -0.05 -0.15 -0.15
v -0.05 -0.05 -0.15
v -0.05 0.05 -0.15
v -0.05 0.15 -0.15
v 0.05 -0.25 -0.15
v 0.05 -0.15 -0.15
v 0.05 -0.05 -0.15
v 0.05 0.05 -0.15
v 0.05 0.15 -0.15
v 0.15 -0.15 -0.15
v 0.15 -0.05 -0.15
v 0.15 0.05 -0.15
v 0.15 0.15 -0.15
v -0.15 -0.15 -0.25
v -0.15 -0.05 -0.25
v -0.15 0.05 -0.25
v -0.05 -0.15 -0.25
v -0.05 -0.05 -0.25
v -0.05 0.05 -0.25
v -0.05 0.15 -0.25
v 0.05 -0.05 -0.25
v 0.05 0.05 -0.25
v 0.05 0.15 -0.25
v 0.15 -0.05 -0.25
v 0.15 0.05 -0.25
v -0.05 -0.25 0.15
v 0.05 -0.25 0.15
v -0.15 -0.25 0.05
v -0.05 -0.25 0.05
v 0.05 -0.25 0.05
v 0.15 -0.25 0.05
v -0.15 -0.25 -0.05
v -0.05 -0.25 -0.05
v 0.05 -0.25 -0.05
v 0.15 -0.25 -0.05
v -0.15 -0.25 -0.15
v -0.05 -0.25 -0.15
v 0.05 -0.25 -0.15
v -0.15 -0.15 0.15
v -0.05 -0.15 0.15
v 0.05 -0.15 0.15
v 0.15 -0.15 0.15
v -0.15 -0.15 0.05
v -0.05 -0.15 0.05
v 0.05 -0.15 0.05
v 0.15 -0.15 0.05
v 0.25 -0.15 0.05
v -0.25 -0.15 -0.05
v -0.15 -0.15 -0.05
v 0.05 -0.15 -0.05
v 0.15 -0.15 -0.05
v 0.25 -0.15 -0.05
v -0.25 -0.15 -0.15
v -0.15 -0.15 -0.15
v -0.05 -0.15 -0.15
v 0.05 -0.15 -0.15
v 0.15 -0.15 -0.15
v -0.15 -0.15 -0.25
v -0.05 -0.15 -0.25
v -0.15 -0.05 0.25
v -0.05 -0.05 0.25
v 0.05 -0.05 0.25
v 0.15 -0.05 0.25
v -0.25 -0.05 0.15
v -0.15 -0.05 0.15
v -0.05 -0.05 0.15
v 0.05 -0.05 0.15
v 0.15 -0.05 0.15
v 0.25 -0.05 0.15
v -0.25 -0.05 0.05
v -0.15 -0.05 0.05
v 0.15 -0.05 0.05
v 0.25 -0.05 0.05
v -0.25 -0.05 -0.05
v -0.15 -0.05 -0.05
v -0.05 -0.05 -0.15
v 0.05 -0.05 -0.15
v 0.15 -0.05 -0.15
v -0.05 -0.05 -0.25
v 0.05 -0.05 -0.25
v 0.15 -0.05 -0.25
v -0.15 0.05 0.25
v -0.05 0.05 0.25
v 0.05 0.05 0.25
v 0.15 0.05 0.25
v -0.25 0.05 0.15
v -0.15 0.05 0.15
v -0.05 0.05 0.15
v 0.05 0.05 0.15
v 0.15 0.05 0.15
v 0.25 0.05 0.15
v -0.25 0.05 0.05
v -0.15 0.05 0.05
v -0.25 0.05 -0.05
v -0.15 0.05 -0.05
v 0.15 0.05 -0.05
v 0.25 0.05 -0.05
v -0.25 0.05 -0.15
v -0.15 0.05 -0.15
v -0.05 0.05 -0.15
v 0.05 0.05 -0.15
v 0.15 0.05 -0.15
v -0.15 0.05 -0.25
v -0.05 0.05 -0.25
v 0.05 0.05 -0.25
v 0.15 0.05 -0.25
v -0.05 0.15 0.25
v 0.05 0.15 0.25
v -0.15 0.15 0.15
v -0.05 0.15 0.15
v 0.05 0.15 0.15
v 0.15 0.15 0.15
v -0.25 0.15 0.05
v -0.15 0.15 0.05
v -0.05 0.15 0.05
v 0.05 0.15 0.05
v 0.15 0.15 0.05
v -0.25 0.15 -0.05
v -0.15 0.15 -0.05
v -0.05 0.15 -0.05
v 0.05 0.15 -0.05
v 0.15 0.15 -0.05
v -0.15 0.15 -0.15
v -0.05 0.15 -0.15
v 0.05 0.15 -0.15
v 0.15 0.15 -0.15
v -0.05 0.15 -0.25
v 0.05 0.15 -0.25
v -0.05 0.25 0.15
v 0.05 0.25 0.15
v -0.05 0.25 0.05
v 0.05 0.25 0.05
v 0.15 0.25 0.05
v 0.05 0.25 -0.05
v 0.15 0.25 -0.05

# faces
f 5/2/1 2/2/1 1/2/1
f 6/2/1 2/2/1 5/2/1
f 7/5/1 4/5/1 3/5/1
f 8/2/1 5/2/1 4/2/1
f 8/5/1 4/5/1 7/5/1
f 9/1/1 6/1/1 5/1/1
f 9/2/1 5/2/1 8/2/1
f 10/1/1 6/1/1 9/1/1
f 11/3/1 9/3/1 8/3/1
f 12/3/1 9/3/1 11/3/1
f 17/4/1 14/4/1 13/4/1
f 18/1/1 15/1/1 14/1/1
f 18/4/1 14/4/1 17/4/1
f 19/1/1 15/1/1 18/1/1
f 22/3/1 17/3/1 16/3/1
f 23/5/1 18/5/1 17/5/1
f 23/3/1 17/3/1 22/3/1
f 24/5/1 18/5/1 23/5/1
f 25/1/1 20/1/1 19/1/1
f 26/1/1 20/1/1 25/1/1
f 27/3/1 22/3/1 21/3/1
f 28/3/1 22/3/1 27/3/1
f 31/5/1 26/5/1 25/5/1
f 32/5/1 26/5/1 31/5/1
f 33/1/1 29/1/1 28/1/1
f 34/1/1 29/1/1 33/1/1
f 35/3/1 31/3/1 30/3/1
f 36/3/1 31/3/1 35/3/1
f 39/1/1 38/1/1 37/1/1
f 40/1/1 38/1/1 39/1/1
f 45/1/1 42/1/1 41/1/1
f 46/1/1 42/1/1 45/1/1
f 48/1/1 44/1/1 43/1/1
f 49/1/1 44/1/1 48/1/1
f 50/4/1 47/4/1 46/4/1
f 51/4/1 47/4/1 50/4/1
f 54/2/1 53/2/1 52/2/1
f 55/2/1 53/2/1 54/2/1
f 56/1/2 57/1/2 58/1/2
f 58/1/2 57/1/2 59/1/2
f 60/1/2 61/1/2 64/1/2
f 64/1/2 61/1/2 65/1/2
f 62/4/2 63/4/2 66/4/2
f 66/4/2 63/4/2 67/4/2
f 68/1/2 69/1/2 72/1/2
f 72/1/2 69/1/2 73/1/2
f 70/1/2 71/1/2 75/1/2
f 75/1/2 71/1/2 76/1/2
f 73/4/2 74/4/2 77/4/2
f 77/4/2 74/4/2 78/4/2
f 79/3/2 80/3/2 82/3/2
f 82/3/2 80/3/2 83/3/2
f 81/1/2 82/1/2 86/1/2
f 86/1/2 82/1/2 87/1/2
f 83/3/2 84/3/2 88/3/2
f 88/3/2 84/3/2 89/3/2
f 85/2/2 86/2/2 91/2/2
f 91/2/2 86/2/2 92/2/2
f 88/2/2 89/2/2 93/2/2
f 89/1/2 90/1/2 94/1/2
f 93/2/2 89/2/2 94/2/2
f 94/1/2 90/1/2 95/1/2
f 92/1/2 93/1/2 96/1/2
f 93/1/2 94/1/2 96/1/2
f 96/1/2 94/1/2 97/1/2
f 97/1/2 94/1/2 98/1/2
f 98/1/2 94/1/2 99/1/2
f 97/2/2 98/2/2 100/2/2
f 100/2/2 98/2/2 101/2/2
f 102/5/2 103/5/2 105/5/2
f 105/5/2 103/5/2 106/5/2
f 104/1/2 105/1/2 107/1/2
f 105/1/2 106/1/2 107/1/2
f 107/1/2 106/1/2 108/1/2
f 111/3/3 110/3/3 109/3/3
f 112/3/3 110/3/3 111/3/3
f 114/5/3 112/5/3 111/5/3
f 115/1/3 113/1/3 112/1/3
f 115/5/3 112/5/3 114/5/3
f 116/1/3 113/1/3 115/1/3
f 117/2/3 115/2/3 114/2/3
f 118/2/3 115/2/3 117/2/3
f 122/5/3 120/5/3 119/5/3
f 123/5/3 120/5/3 122/5/3
f 126/3/3 122/3/3 121/3/3
f 127/3/3 122/3/3 126/3/3
f 128/1/3 124/1/3 123/1/3
f 129/1/3 124/1/3 128/1/3
f 131/1/3 127/1/3 126/1/3
f 131/1/3 126/1/3 125/1/3
f 132/1/3 127/1/3 131/1/3
f 133/1/3 127/1/3 132/1/3
f 135/4/3 130/4/3 129/4/3
f 136/4/3 130/4/3 135/4/3
f 137/1/3 133/1/3 132/1/3
f 138/1/3 133/1/3 137/1/3
f 139/1/3 135/1/3 134/1/3
f 140/1/3 135/1/3 139/1/3
f 141/1/3 139/1/3 138/1/3
f 142/1/3 139/1/3 141/1/3
f 147/3/3 144/3/3 143/3/3
f 148/3/3 144/3/3 147/3/3
f 149/4/3 146/4/3 145/4/3
f 150/4/3 146/4/3 149/4/3
f 155/3/3 152/3/3 151/3/3
f 156/3/3 152/3/3 155/3/3
f 158/2/3 154/2/3 153/2/3
f 159/2/3 154/2/3 158/2/3
f 160/5/3 157/5/3 156/5/3
f 161/5/3 157/5/3 160/5/3
f 164/2/3 163/2/3 162/2/3
f 165/2/3 163/2/3 164/2/3
f 166/4/4 167/4/4 168/4/4
f 168/4/4 167/4/4 169/4/4
f 170/3/4 171/3/4 172/3/4
f 172/3/4 171/3/4 173/3/4
f 174/3/4 175/3/4 178/3/4
f 178/3/4 175/3/4 179/3/4
f 176/2/4 177/2/4 182/2/4
f 182/2/4 177/2/4 183/2/4
f 179/5/4 180/5/4 184/5/4
f 180/1/4 181/1/4 185/1/4
f 184/5/4 180/5/4 185/5/4
f 185/1/4 181/1/4 186/1/4
f 187/2/4 188/2/4 191/2/4
f 188/1/4 189/1/4 192/1/4
f 191/2/4 188/2/4 192/2/4
f 192/1/4 189/1/4 193/1/4
f 190/1/4 191/1/4 195/1/4
f 195/1/4 191/1/4 196/1/4
f 193/3/4 194/3/4 198/3/4
f 198/3/4 194/3/4 199/3/4
f 195/4/4 196/4/4 200/4/4
f 196/2/4 197/2/4 201/2/4
f 200/4/4 196/4/4 201/4/4
f 201/2/4 197/2/4 202/2/4
f 201/3/4 202/3/4 205/3/4
f 205/3/4 202/3/4 206/3/4
f 203/1/4 204/1/4 207/1/4
f 207/1/4 204/1/4 208/1/4
f 209/1/4 210/1/4 212/1/4
f 210/5/4 211/5/4 213/5/4
f 212/1/4 210/1/4 213/1/4
f 213/5/4 211/5/4 214/5/4
f 213/3/4 214/3/4 216/3/4
f 214/1/4 215/1/4 217/1/4
f 216/3/4 214/3/4 217/3/4
f 217/1/4 215/1/4 218/1/4
f 216/1/4 217/1/4 219/1/4
f 219/1/4 217/1/4 220/1/4
f 224/1/5 222/1/5 221/1/5
f 225/1/5 222/1/5 224/1/5
f 227/4/5 224/4/5 223/4/5
f 228/1/5 225/1/5 224/1/5
f 228/4/5 224/4/5 227/4/5
f 229/3/5 226/3/5 225/3/5
f 229/1/5 225/1/5 228/1/5
f 230/3/5 226/3/5 229/3/5
f 231/1/5 228/1/5 227/1/5
f 232/4/5 229/4/5 228/4/5
f 232/1/5 228/1/5 231/1/5
f 233/4/5 229/4/5 232/4/5
f 238/3/5 235/3/5 234/3/5
f 239/3/5 235/3/5 238/3/5
f 240/1/5 237/1/5 236/1/5
f 241/1/5 237/1/5 240/1/5
f 246/5/5 242/5/5 241/5/5
f 247/5/5 242/5/5 246/5/5
f 248/2/5 244/2/5 243/2/5
f 249/2/5 244/2/5 248/2/5
f 251/3/5 246/3/5 245/3/5
f 252/3/5 246/3/5 251/3/5
f 253/1/5 250/1/5 249/1/5
f 254/1/5 250/1/5 253/1/5
f 260/3/5 256/3/5 255/3/5
f 261/5/5 257/5/5 256/5/5
f 261/3/5 256/3/5 260/3/5
f 262/2/5 258/2/5 257/2/5
f 262/5/5 257/5/5 261/5/5
f 263/2/5 258/2/5 262/2/5
f 265/5/5 260/5/5 259/5/5
f 266/5/5 260/5/5 265/5/5
f 267/1/5 264/1/5 263/1/5
f 268/1/5 264/1/5 267/1/5
f 269/2/5 266/2/5 265/2/5
f 270/2/5 266/2/5 269/2/5
f 274/3/5 272/3/5 271/3/5
f 275/1/5 273/1/5 272/1/5
f 275/3/5 272/3/5 274/3/5
f 276/1/5 273/1/5 275/1/5
f 277/3/6 278/3/6 282/3/6
f 282/3/6 278/3/6 283/3/6
f 279/2/6 280/2/6 284/2/6
f 284/2/6 280/2/6 285/2/6
f 281/5/6 282/5/6 287/5/6
f 287/5/6 282/5/6 288/5/6
f 285/1/6 286/1/6 291/1/6
f 291/1/6 286/1/6 292/1/6
f 289/1/6 290/1/6 293/1/6
f 293/1/6 290/1/6 294/1/6
f 294/5/6 295/5/6 298/5/6
f 298/5/6 295/5/6 299/5/6
f 296/1/6 297/1/6 300/1/6
f 300/1/6 297/1/6 301/1/6
f 302/1/6 303/1/6 305/1/6
f 305/1/6 303/1/6 306/1/6
f 304/1/6 305/1/6 309/1/6
f 309/1/6 305/1/6 310/1/6
f 306/1/6 307/1/6 311/1/6
f 311/1/6 307/1/6 312/1/6
f 309/3/6 310/3/6 313/3/6
f 308/3/6 309/3/6 313/3/6
f 310/3/6 311/3/6 313/3/6
f 313/3/6 311/3/6 314/3/6
f 314/3/6 311/3/6 315/3/6
f 315/3/6 311/3/6 316/3/6
f 314/3/6 315/3/6 318/3/6
f 315/5/6 316/5/6 319/5/6
f 318/3/6 315/3/6 319/3/6
f 316/1/6 317/1/6 320/1/6
f 319/5/6 316/5/6 320/5/6
f 320/1/6 317/1/6 321/1/6
f 319/1/6 320/1/6 322/1/6
f 322/1/6 320/1/6 323/1/6
f 324/4/6 325/4/6 326/4/6
f 326/4/6 325/4/6 327/4/6
f 327/2/6 328/2/6 329/2/6
f 329/2/6 328/2/6 330/2/6
