# MagicaVoxel @ Ephtracy

# group
o 

# material
mtllib a6i1.mtl
usemtl palette

# normals
vn -1 0 0
vn 1 0 0
vn 0 0 1
vn 0 0 -1
vn 0 -1 0
vn 0 1 0

# texcoords
vt 0.912109 0.5
vt 0.939453 0.5
vt 0.943359 0.5
vt 0.947266 0.5
vt 0.951172 0.5

# verts
v -0.25 -0.15 -0.05
v -0.25 -0.15 -0.15
v -0.25 -0.05 0.15
v -0.25 -0.05 -0.05
v -0.25 0.05 0.15
v -0.25 0.05 0.05
v -0.25 0.05 -0.05
v -0.25 0.05 -0.15
v -0.25 0.15 0.05
v -0.25 0.15 -0.05
v -0.15 -0.25 0.05
v -0.15 -0.25 -0.15
v -0.15 -0.15 0.15
v -0.15 -0.15 0.05
v -0.15 -0.15 -0.05
v -0.15 -0.15 -0.15
v -0.15 -0.15 -0.25
v -0.15 -0.05 0.25
v -0.15 -0.05 0.15
v -0.15 -0.05 0.05
v -0.15 -0.05 -0.05
v -0.15 -0.05 -0.15
v -0.15 -0.05 -0.25
v -0.15 0.05 0.25
v -0.15 0.05 0.15
v -0.15 0.05 0.05
v -0.15 0.05 -0.05
v -0.15 0.05 -0.15
v -0.15 0.05 -0.25
v -0.15 0.15 0.15
v -0.15 0.15 0.05
v -0.15 0.15 -0.05
v -0.15 0.15 -0.15
v -0.05 -0.25 0.15
v -0.05 -0.25 0.05
v -0.05 -0.15 0.15
v -0.05 -0.15 0.05
v -0.05 0.05 0.25
v -0.05 0.05 0.15
v -0.05 0.05 -0.15
v -0.05 0.05 -0.25
v -0.05 0.15 0.25
v -0.05 0.15 0.15
v -0.05 0.15 0.05
v -0.05 0.15 -0.15
v -0.05 0.15 -0.25
v -0.05 0.25 0.15
v -0.05 0.25 0.05
v 0.05 0.15 0.05
v 0.05 0.15 -0.05
v 0.05 0.25 0.05
v 0.05 0.25 -0.05
v -0.05 -0.15 -0.15
v -0.05 -0.15 -0.25
v -0.05 -0.05 -0.15
v -0.05 -0.05 -0.25
v 0.05 -0.25 0.15
v 0.05 -0.25 0.05
v 0.05 -0.25 -0.05
v 0.05 -0.25 -0.15
v 0.05 -0.15 0.15
v 0.05 -0.15 0.05
v 0.05 -0.15 -0.05
v 0.05 -0.15 -0.15
v 0.05 0.05 0.25
v 0.05 0.05 0.15
v 0.05 0.05 -0.15
v 0.05 0.05 -0.25
v 0.05 0.15 0.25
v 0.05 0.15 0.15
v 0.05 0.15 0.05
v 0.05 0.15 -0.15
v 0.05 0.15 -0.25
v 0.05 0.25 0.15
v 0.05 0.25 0.05
v 0.15 -0.25 0.05
v 0.15 -0.25 -0.05
v 0.15 -0.15 0.15
v 0.15 -0.15 0.05
v 0.15 -0.15 -0.05
v 0.15 -0.15 -0.15
v 0.15 -0.05 0.25
v 0.15 -0.05 0.15
v 0.15 -0.05 0.05
v 0.15 -0.05 -0.05
v 0.15 -0.05 -0.15
v 0.15 -0.05 -0.25
v 0.15 0.05 0.25
v 0.15 0.05 0.15
v 0.15 0.05 -0.05
v 0.15 0.05 -0.15
v 0.15 0.05 -0.25
v 0.15 0.15 0.15
v 0.15 0.15 0.05
v 0.15 0.15 -0.05
v 0.15 0.15 -0.15
v 0.15 0.25 0.05
v 0.15 0.25 -0.05
v 0.25 -0.15 0.05
v 0.25 -0.15 -0.05
v 0.25 -0.05 0.15
v 0.25 -0.05 0.05
v 0.25 -0.05 -0.05
v 0.25 0.05 0.15
v 0.25 0.05 -0.05
v -0.15 -0.05 0.25
v -0.15 0.05 0.25
v -0.05 -0.05 0.25
v -0.05 0.05 0.25
v -0.05 0.15 0.25
v 0.05 -0.05 0.25
v 0.05 0.05 0.25
v 0.05 0.15 0.25
v 0.15 -0.05 0.25
v 0.15 0.05 0.25
v -0.25 -0.05 0.15
v -0.25 0.05 0.15
v -0.15 -0.15 0.15
v -0.15 -0.05 0.15
v -0.15 0.05 0.15
v -0.15 0.15 0.15
v -0.05 -0.25 0.15
v -0.05 -0.15 0.15
v -0.05 -0.05 0.15
v -0.05 0.05 0.15
v -0.05 0.15 0.15
v -0.05 0.25 0.15
v 0.05 -0.25 0.15
v 0.05 -0.15 0.15
v 0.05 -0.05 0.15
v 0.05 0.05 0.15
v 0.05 0.15 0.15
v 0.05 0.25 0.15
v 0.15 -0.15 0.15
v 0.15 -0.05 0.15
v 0.15 0.05 0.15
v 0.15 0.15 0.15
v 0.25 -0.05 0.15
v 0.25 0.05 0.15
v -0.25 0.05 0.05
v -0.25 0.15 0.05
v -0.15 -0.25 0.05
v -0.15 -0.15 0.05
v -0.15 0.05 0.05
v -0.15 0.15 0.05
v -0.05 -0.25 0.05
v -0.05 -0.15 0.05
v 0.05 -0.25 0.05
v 0.05 -0.15 0.05
v 0.05 0.15 0.05
v 0.05 0.25 0.05
v 0.15 -0.25 0.05
v 0.15 -0.15 0.05
v 0.15 -0.05 0.05
v 0.15 0.15 0.05
v 0.15 0.25 0.05
v 0.25 -0.15 0.05
v 0.25 -0.05 0.05
v -0.25 -0.15 -0.05
v -0.25 -0.05 -0.05
v -0.15 -0.15 -0.05
v -0.15 -0.05 -0.05
v -0.05 0.15 0.05
v -0.05 0.25 0.05
v 0.05 0.15 0.05
v 0.05 0.25 0.05
v -0.25 0.05 -0.05
v -0.25 0.15 -0.05
v -0.15 0.05 -0.05
v -0.15 0.15 -0.05
v 0.05 -0.25 -0.05
v 0.05 -0.15 -0.05
v 0.05 0.15 -0.05
v 0.05 0.25 -0.05
v 0.15 -0.25 -0.05
v 0.15 -0.15 -0.05
v 0.15 -0.05 -0.05
v 0.15 0.05 -0.05
v 0.15 0.15 -0.05
v 0.15 0.25 -0.05
v 0.25 -0.15 -0.05
v 0.25 -0.05 -0.05
v 0.25 0.05 -0.05
v -0.25 -0.15 -0.15
v -0.25 0.05 -0.15
v -0.15 -0.25 -0.15
v -0.15 -0.15 -0.15
v -0.15 -0.05 -0.15
v -0.15 0.05 -0.15
v -0.15 0.15 -0.15
v -0.05 -0.25 -0.15
v -0.05 -0.15 -0.15
v -0.05 -0.05 -0.15
v -0.05 0.05 -0.15
v -0.05 0.15 -0.15
v 0.05 -0.25 -0.15
v 0.05 -0.15 -0.15
v 0.05 -0.05 -0.15
v 0.05 0.05 -0.15
v 0.05 0.15 -0.15
v 0.15 -0.15 -0.15
v 0.15 -0.05 -0.15
v 0.15 0.05 -0.15
v 0.15 0.15 -0.15
v -0.15 -0.15 -0.25
v -0.15 -0.05 -0.25
v -0.15 0.05 -0.25
v -0.05 -0.15 -0.25
v -0.05 -0.05 -0.25
v -0.05 0.05 -0.25
v -0.05 0.15 -0.25
v 0.05 -0.05 -0.25
v 0.05 0.05 -0.25
v 0.05 0.15 -0.25
v 0.15 -0.05 -0.25
v 0.15 0.05 -0.25
v -0.05 -0.25 0.15
v 0.05 -0.25 0.15
v -0.15 -0.25 0.05
v -0.05 -0.25 0.05
v 0.05 -0.25 0.05
v 0.15 -0.25 0.05
v -0.05 -0.25 -0.05
v 0.05 -0.25 -0.05
v 0.15 -0.25 -0.05
v -0.15 -0.25 -0.15
v -0.05 -0.25 -0.15
v 0.05 -0.25 -0.15
v -0.15 -0.15 0.15
v -0.05 -0.15 0.15
v 0.05 -0.15 0.15
v 0.15 -0.15 0.15
v -0.15 -0.15 0.05
v -0.05 -0.15 0.05
v 0.05 -0.15 0.05
v 0.15 -0.15 0.05
v 0.25 -0.15 0.05
v -0.25 -0.15 -0.05
v -0.15 -0.15 -0.05
v 0.05 -0.15 -0.05
v 0.15 -0.15 -0.05
v 0.25 -0.15 -0.05
v -0.25 -0.15 -0.15
v -0.15 -0.15 -0.15
v -0.05 -0.15 -0.15
v 0.05 -0.15 -0.15
v 0.15 -0.15 -0.15
v -0.15 -0.15 -0.25
v -0.05 -0.15 -0.25
v -0.15 -0.05 0.25
v -0.05 -0.05 0.25
v 0.05 -0.05 0.25
v 0.15 -0.05 0.25
v -0.25 -0.05 0.15
v -0.15 -0.05 0.15
v -0.05 -0.05 0.15
v 0.05 -0.05 0.15
v 0.15 -0.05 0.15
v 0.25 -0.05 0.15
v -0.15 -0.05 0.05
v 0.15 -0.05 0.05
v 0.25 -0.05 0.05
v -0.25 -0.05 -0.05
v -0.15 -0.05 -0.05
v -0.05 -0.05 -0.15
v 0.05 -0.05 -0.15
v 0.15 -0.05 -0.15
v -0.05 -0.05 -0.25
v 0.05 -0.05 -0.25
v 0.15 -0.05 -0.25
v -0.15 0.05 0.25
v -0.05 0.05 0.25
v 0.05 0.05 0.25
v 0.15 0.05 0.25
v -0.25 0.05 0.15
v -0.15 0.05 0.15
v -0.05 0.05 0.15
v 0.05 0.05 0.15
v 0.15 0.05 0.15
v 0.25 0.05 0.15
v -0.25 0.05 0.05
v -0.15 0.05 0.05
v -0.25 0.05 -0.05
v -0.15 0.05 -0.05
v 0.15 0.05 -0.05
v 0.25 0.05 -0.05
v -0.25 0.05 -0.15
v -0.15 0.05 -0.15
v -0.05 0.05 -0.15
v 0.05 0.05 -0.15
v 0.15 0.05 -0.15
v -0.15 0.05 -0.25
v -0.05 0.05 -0.25
v 0.05 0.05 -0.25
v 0.15 0.05 -0.25
v -0.05 0.15 0.25
v 0.05 0.15 0.25
v -0.15 0.15 0.15
v -0.05 0.15 0.15
v 0.05 0.15 0.15
v 0.15 0.15 0.15
v -0.25 0.15 0.05
v -0.15 0.15 0.05
v -0.05 0.15 0.05
v 0.05 0.15 0.05
v 0.15 0.15 0.05
v -0.25 0.15 -0.05
v -0.15 0.15 -0.05
v -0.05 0.15 -0.05
v 0.05 0.15 -0.05
v 0.15 0.15 -0.05
v -0.15 0.15 -0.15
v -0.05 0.15 -0.15
v 0.05 0.15 -0.15
v 0.15 0.15 -0.15
v -0.05 0.15 -0.25
v 0.05 0.15 -0.25
v -0.05 0.25 0.15
v 0.05 0.25 0.15
v -0.05 0.25 0.05
v 0.05 0.25 0.05
v 0.15 0.25 0.05
v 0.05 0.25 -0.05
v 0.15 0.25 -0.05

# faces
f 4/4/1 2/4/1 1/4/1
f 5/2/1 4/2/1 3/2/1
f 6/2/1 4/2/1 5/2/1
f 7/4/1 2/4/1 4/4/1
f 7/2/1 4/2/1 6/2/1
f 8/4/1 2/4/1 7/4/1
f 9/4/1 7/4/1 6/4/1
f 10/4/1 7/4/1 9/4/1
f 14/3/1 12/3/1 11/3/1
f 15/3/1 12/3/1 14/3/1
f 16/3/1 12/3/1 15/3/1
f 19/4/1 14/4/1 13/4/1
f 20/3/1 15/3/1 14/3/1
f 20/4/1 14/4/1 19/4/1
f 21/3/1 15/3/1 20/3/1
f 22/2/1 17/2/1 16/2/1
f 23/2/1 17/2/1 22/2/1
f 24/3/1 19/3/1 18/3/1
f 25/3/1 19/3/1 24/3/1
f 28/5/1 23/5/1 22/5/1
f 29/5/1 23/5/1 28/5/1
f 30/5/1 26/5/1 25/5/1
f 31/5/1 26/5/1 30/5/1
f 32/5/1 28/5/1 27/5/1
f 33/5/1 28/5/1 32/5/1
f 36/2/1 35/2/1 34/2/1
f 37/2/1 35/2/1 36/2/1
f 42/1/1 39/1/1 38/1/1
f 43/1/1 39/1/1 42/1/1
f 45/1/1 41/1/1 40/1/1
f 46/1/1 41/1/1 45/1/1
f 47/3/1 44/3/1 43/3/1
f 48/3/1 44/3/1 47/3/1
f 51/3/1 50/3/1 49/3/1
f 52/3/1 50/3/1 51/3/1
f 53/2/2 54/2/2 55/2/2
f 55/2/2 54/2/2 56/2/2
f 57/2/2 58/2/2 61/2/2
f 61/2/2 58/2/2 62/2/2
f 59/5/2 60/5/2 63/5/2
f 63/5/2 60/5/2 64/5/2
f 65/1/2 66/1/2 69/1/2
f 69/1/2 66/1/2 70/1/2
f 67/1/2 68/1/2 72/1/2
f 72/1/2 68/1/2 73/1/2
f 70/3/2 71/3/2 74/3/2
f 74/3/2 71/3/2 75/3/2
f 76/5/2 77/5/2 79/5/2
f 79/5/2 77/5/2 80/5/2
f 78/4/2 79/4/2 83/4/2
f 83/4/2 79/4/2 84/4/2
f 80/2/2 81/2/2 85/2/2
f 85/2/2 81/2/2 86/2/2
f 82/3/2 83/3/2 88/3/2
f 88/3/2 83/3/2 89/3/2
f 86/2/2 87/2/2 90/2/2
f 85/2/2 86/2/2 90/2/2
f 90/2/2 87/2/2 91/2/2
f 91/2/2 87/2/2 92/2/2
f 89/5/2 90/5/2 93/5/2
f 90/5/2 91/5/2 93/5/2
f 93/5/2 91/5/2 94/5/2
f 94/5/2 91/5/2 95/5/2
f 95/5/2 91/5/2 96/5/2
f 94/3/2 95/3/2 97/3/2
f 97/3/2 95/3/2 98/3/2
f 99/3/2 100/3/2 102/3/2
f 102/3/2 100/3/2 103/3/2
f 101/5/2 102/5/2 104/5/2
f 102/5/2 103/5/2 104/5/2
f 104/5/2 103/5/2 105/5/2
f 108/3/3 107/3/3 106/3/3
f 109/3/3 107/3/3 108/3/3
f 111/1/3 109/1/3 108/1/3
f 111/1/3 110/1/3 109/1/3
f 112/1/3 110/1/3 111/1/3
f 113/1/3 110/1/3 112/1/3
f 114/3/3 112/3/3 111/3/3
f 115/3/3 112/3/3 114/3/3
f 119/2/3 117/2/3 116/2/3
f 120/2/3 117/2/3 119/2/3
f 123/4/3 119/4/3 118/4/3
f 124/4/3 119/4/3 123/4/3
f 125/5/3 121/5/3 120/5/3
f 126/5/3 121/5/3 125/5/3
f 128/2/3 124/2/3 123/2/3
f 128/2/3 123/2/3 122/2/3
f 129/2/3 124/2/3 128/2/3
f 130/2/3 124/2/3 129/2/3
f 132/3/3 127/3/3 126/3/3
f 133/3/3 127/3/3 132/3/3
f 134/4/3 130/4/3 129/4/3
f 135/4/3 130/4/3 134/4/3
f 136/5/3 132/5/3 131/5/3
f 137/5/3 132/5/3 136/5/3
f 138/5/3 136/5/3 135/5/3
f 139/5/3 136/5/3 138/5/3
f 144/4/3 141/4/3 140/4/3
f 145/4/3 141/4/3 144/4/3
f 146/3/3 143/3/3 142/3/3
f 147/3/3 143/3/3 146/3/3
f 152/5/3 149/5/3 148/5/3
f 153/5/3 149/5/3 152/5/3
f 155/3/3 151/3/3 150/3/3
f 156/3/3 151/3/3 155/3/3
f 157/3/3 154/3/3 153/3/3
f 158/3/3 154/3/3 157/3/3
f 161/4/3 160/4/3 159/4/3
f 162/4/3 160/4/3 161/4/3
f 163/3/4 164/3/4 165/3/4
f 165/3/4 164/3/4 166/3/4
f 167/4/4 168/4/4 169/4/4
f 169/4/4 168/4/4 170/4/4
f 171/5/4 172/5/4 175/5/4
f 175/5/4 172/5/4 176/5/4
f 173/3/4 174/3/4 179/3/4
f 179/3/4 174/3/4 180/3/4
f 176/3/4 177/3/4 181/3/4
f 177/5/4 178/5/4 182/5/4
f 181/3/4 177/3/4 182/3/4
f 182/5/4 178/5/4 183/5/4
f 184/4/4 185/4/4 187/4/4
f 187/4/4 185/4/4 188/4/4
f 188/4/4 185/4/4 189/4/4
f 186/3/4 187/3/4 191/3/4
f 191/3/4 187/3/4 192/3/4
f 189/5/4 190/5/4 194/5/4
f 194/5/4 190/5/4 195/5/4
f 191/5/4 192/5/4 196/5/4
f 192/1/4 193/1/4 197/1/4
f 196/5/4 192/5/4 197/5/4
f 197/1/4 193/1/4 198/1/4
f 197/2/4 198/2/4 201/2/4
f 201/2/4 198/2/4 202/2/4
f 199/5/4 200/5/4 203/5/4
f 203/5/4 200/5/4 204/5/4
f 205/2/4 206/2/4 208/2/4
f 206/5/4 207/5/4 209/5/4
f 208/2/4 206/2/4 209/2/4
f 209/5/4 207/5/4 210/5/4
f 209/5/4 210/5/4 212/5/4
f 210/1/4 211/1/4 213/1/4
f 212/5/4 210/5/4 213/5/4
f 213/1/4 211/1/4 214/1/4
f 212/2/4 213/2/4 215/2/4
f 215/2/4 213/2/4 216/2/4
f 220/2/5 218/2/5 217/2/5
f 221/2/5 218/2/5 220/2/5
f 223/3/5 220/3/5 219/3/5
f 223/4/5 221/4/5 220/4/5
f 224/5/5 222/5/5 221/5/5
f 224/4/5 221/4/5 223/4/5
f 225/5/5 222/5/5 224/5/5
f 226/3/5 223/3/5 219/3/5
f 227/5/5 224/5/5 223/5/5
f 227/3/5 223/3/5 226/3/5
f 228/5/5 224/5/5 227/5/5
f 233/4/5 230/4/5 229/4/5
f 234/4/5 230/4/5 233/4/5
f 235/4/5 232/4/5 231/4/5
f 236/4/5 232/4/5 235/4/5
f 241/3/5 237/3/5 236/3/5
f 242/3/5 237/3/5 241/3/5
f 243/4/5 239/4/5 238/4/5
f 244/4/5 239/4/5 243/4/5
f 246/2/5 241/2/5 240/2/5
f 247/2/5 241/2/5 246/2/5
f 248/2/5 245/2/5 244/2/5
f 249/2/5 245/2/5 248/2/5
f 255/3/5 251/3/5 250/3/5
f 256/1/5 252/1/5 251/1/5
f 256/3/5 251/3/5 255/3/5
f 257/3/5 253/3/5 252/3/5
f 257/1/5 252/1/5 256/1/5
f 258/3/5 253/3/5 257/3/5
f 260/2/5 255/2/5 254/2/5
f 261/5/5 259/5/5 258/5/5
f 262/5/5 259/5/5 261/5/5
f 263/2/5 260/2/5 254/2/5
f 264/2/5 260/2/5 263/2/5
f 268/5/5 266/5/5 265/5/5
f 269/2/5 267/2/5 266/2/5
f 269/5/5 266/5/5 268/5/5
f 270/2/5 267/2/5 269/2/5
f 271/3/6 272/3/6 276/3/6
f 276/3/6 272/3/6 277/3/6
f 273/3/6 274/3/6 278/3/6
f 278/3/6 274/3/6 279/3/6
f 275/2/6 276/2/6 281/2/6
f 281/2/6 276/2/6 282/2/6
f 279/5/6 280/5/6 285/5/6
f 285/5/6 280/5/6 286/5/6
f 283/4/6 284/4/6 287/4/6
f 287/4/6 284/4/6 288/4/6
f 288/5/6 289/5/6 292/5/6
f 292/5/6 289/5/6 293/5/6
f 290/2/6 291/2/6 294/2/6
f 294/2/6 291/2/6 295/2/6
f 296/1/6 297/1/6 299/1/6
f 299/1/6 297/1/6 300/1/6
f 298/5/6 299/5/6 303/5/6
f 303/5/6 299/5/6 304/5/6
f 300/5/6 301/5/6 305/5/6
f 305/5/6 301/5/6 306/5/6
f 302/4/6 303/4/6 307/4/6
f 303/3/6 304/3/6 308/3/6
f 307/4/6 303/4/6 308/4/6
f 304/3/6 305/3/6 308/3/6
f 308/3/6 305/3/6 309/3/6
f 309/3/6 305/3/6 310/3/6
f 308/5/6 309/5/6 312/5/6
f 309/2/6 310/2/6 313/2/6
f 312/5/6 309/5/6 313/5/6
f 310/5/6 311/5/6 314/5/6
f 313/2/6 310/2/6 314/2/6
f 314/5/6 311/5/6 315/5/6
f 313/1/6 314/1/6 316/1/6
f 316/1/6 314/1/6 317/1/6
f 318/3/6 319/3/6 320/3/6
f 320/3/6 319/3/6 321/3/6
f 321/3/6 322/3/6 323/3/6
f 323/3/6 322/3/6 324/3/6
